<svg width="18" height="17" viewBox="0 0 18 17" fill="none" xmlns="http://www.w3.org/2000/svg">
<path d="M12.3588 6.55546C12.7493 6.16493 12.7493 5.53177 12.3588 5.14124C11.9682 4.75072 11.3351 4.75072 10.9445 5.14124L12.3588 6.55546ZM5.64124 10.4445C5.25072 10.8351 5.25072 11.4682 5.64124 11.8588C6.03177 12.2493 6.66493 12.2493 7.05546 11.8588L5.64124 10.4445ZM10.9445 11.8588C11.3351 12.2493 11.9682 12.2493 12.3588 11.8588C12.7493 11.4682 12.7493 10.8351 12.3588 10.4445L10.9445 11.8588ZM7.05546 5.14124C6.66493 4.75072 6.03177 4.75072 5.64124 5.14124C5.25072 5.53177 5.25072 6.16493 5.64124 6.55546L7.05546 5.14124ZM15.5 8.5C15.5 12.0899 12.5899 15 9 15V17C13.6944 17 17.5 13.1944 17.5 8.5H15.5ZM9 15C5.41015 15 2.5 12.0899 2.5 8.5H0.5C0.5 13.1944 4.30558 17 9 17V15ZM2.5 8.5C2.5 4.91015 5.41015 2 9 2V0C4.30558 0 0.5 3.80558 0.5 8.5H2.5ZM9 2C12.5899 2 15.5 4.91015 15.5 8.5H17.5C17.5 3.80558 13.6944 0 9 0V2ZM10.9445 5.14124L8.29289 7.79289L9.70711 9.20711L12.3588 6.55546L10.9445 5.14124ZM8.29289 7.79289L5.64124 10.4445L7.05546 11.8588L9.70711 9.20711L8.29289 7.79289ZM12.3588 10.4445L9.70711 7.79289L8.29289 9.20711L10.9445 11.8588L12.3588 10.4445ZM9.70711 7.79289L7.05546 5.14124L5.64124 6.55546L8.29289 9.20711L9.70711 7.79289Z" fill="#EB4454"/>
</svg>
